<svg id="Layer_1" data-name="Layer 1" xmlns="http://www.w3.org/2000/svg" viewBox="0 0 221.43 29.56"><defs><style>.cls-1{fill:#fff;}</style></defs><title>fmulogo</title><path class="cls-1" d="M37.08,21.92V4.81h3.64V21.92Z"/><path class="cls-1" d="M51,21.92V14.19c0-1.07-.07-2.34-1.58-2.34A3.75,3.75,0,0,0,47,13v8.9H43.39v-13h2.35l.49,1.83a5.43,5.43,0,0,1,4.13-2.21c2.82,0,4.23,1.84,4.23,5.15v8.26Z"/><path class="cls-1" d="M64.41,21.52a9.24,9.24,0,0,1-3.24.73c-1.22,0-3.45-.61-3.45-4.11V12H55.86V9.34l1.88-.47.35-2.68,3.22-.89V8.89H64V12h-2.7v6.15c0,.84.47,1,.94,1a4.68,4.68,0,0,0,1.45-.26Z"/><path class="cls-1" d="M71.49,26.59H67.94L70,21.92h-.66l-4.41-13h3.75L70.52,15a25,25,0,0,1,.73,3.56A27.7,27.7,0,0,1,72,15l1.78-6.1h3.71Z"/><path class="cls-1" d="M79.5,23.33A12.62,12.62,0,0,0,83,24c1.48,0,3-.35,3-2.72v-1a4,4,0,0,1-3.22,1.48c-3,0-5-2.56-5-6.43S79.64,8.51,83,8.51a4.22,4.22,0,0,1,3.69,2.05l.44-1.67h2.35V21.26c0,4.6-3.36,5.66-5.77,5.66a14.1,14.1,0,0,1-5-1ZM86,13.07a2.74,2.74,0,0,0-2.26-1.32c-1.29,0-2.3.71-2.3,3.5s1.13,3.48,2.26,3.48A2.91,2.91,0,0,0,86,17.46Z"/><path class="cls-1" d="M92.17,18.68a20,20,0,0,0,4.37.66c1.31,0,2-.33,2-1.11s-.5-1-2.91-1.48-4.09-1.5-4.09-4.13c0-2.79,2.3-4.11,5.19-4.11a14.44,14.44,0,0,1,5,.8L101,11.92a19.79,19.79,0,0,0-3.8-.52c-1.5,0-2.11.33-2.11,1.06s.68,1,3,1.38,4,1.44,4,3.92c0,3-2.09,4.53-5.37,4.53a16.84,16.84,0,0,1-5.28-1Z"/><path class="cls-1" d="M104,21.92V4h3.57v6.24a4.44,4.44,0,0,1,3.59-1.76c3.17,0,4.53,2.87,4.53,6.72,0,3.64-1.76,7.06-5.26,7.06a4.35,4.35,0,0,1-3.54-2l-.57,1.6Zm3.57-4.25a2.8,2.8,0,0,0,2.18,1.41c1.2,0,2.3-1,2.3-3.52,0-2.14-.33-3.83-2.18-3.83-1.46,0-2.18,1.5-2.3,1.64Z"/><path class="cls-1" d="M128.66,21.31a14.27,14.27,0,0,1-5.19,1c-4.53,0-6.29-3.07-6.29-6.9s2-6.88,6.17-6.88c3.87,0,5.56,2.59,5.56,6.46,0,.61,0,1.17,0,1.38h-8.08c.14,2.19,1.22,2.94,3.15,2.94a22,22,0,0,0,4.11-.54Zm-3.15-7.16a2.29,2.29,0,0,0-2.28-2.56,2.48,2.48,0,0,0-2.46,2.68Z"/><path class="cls-1" d="M131.06,18.68a20.12,20.12,0,0,0,4.37.66c1.31,0,2-.33,2-1.11s-.49-1-2.91-1.48-4.09-1.5-4.09-4.13c0-2.79,2.3-4.11,5.19-4.11a14.44,14.44,0,0,1,5,.8l-.68,2.61a19.67,19.67,0,0,0-3.8-.52c-1.5,0-2.11.33-2.11,1.06s.68,1,3,1.38,4,1.44,4,3.92c0,3-2.09,4.53-5.38,4.53a16.84,16.84,0,0,1-5.28-1Z"/><path class="cls-1" d="M150.43,21.52a9.24,9.24,0,0,1-3.24.73c-1.22,0-3.45-.61-3.45-4.11V12h-1.85V9.34l1.87-.47.36-2.68,3.21-.89V8.89H150V12h-2.7v6.15c0,.84.47,1,.94,1a4.8,4.8,0,0,0,1.46-.26Z"/><path class="cls-1" d="M159.81,21.92l-.56-1.74a4.48,4.48,0,0,1-3.95,2A4,4,0,0,1,151.05,18c0-3.14,2.82-3.89,5.12-3.89h2.44V13.7c0-1.59-.94-2.09-2.3-2.09a17.89,17.89,0,0,0-3.57.59L152,9.48a17.46,17.46,0,0,1,4.86-.92c2.06,0,5.3.52,5.3,5.59v7.77ZM154.62,7.41c-1.38,0-1.81-.35-1.81-1.64s.43-1.65,1.81-1.65,1.79.36,1.79,1.65S156,7.41,154.62,7.41Zm1.76,8.83c-1.41,0-1.9.8-1.9,1.59a1.58,1.58,0,0,0,1.76,1.67c1.27,0,2.37-.82,2.4-3.33Zm3.15-8.83c-1.39,0-1.81-.35-1.81-1.64s.42-1.65,1.81-1.65,1.81.36,1.81,1.65S160.91,7.41,159.53,7.41Z"/><path class="cls-1" d="M164.63,21.92V4h3.59V21.92Z"/><path class="cls-1" d="M170.73,21.92V4h3.59V21.92Z"/><path class="cls-1" d="M184.42,21.92V14.19c0-1.07-.07-2.34-1.57-2.34A3.77,3.77,0,0,0,180.38,13v8.9h-3.57v-13h2.35l.49,1.83a5.44,5.44,0,0,1,4.14-2.21c2.81,0,4.22,1.84,4.22,5.15v8.26Z"/><path class="cls-1" d="M192.26,4.17c1.6,0,2.09.38,2.09,1.72s-.49,1.71-2.09,1.71-2.11-.38-2.11-1.71S190.64,4.17,192.26,4.17Zm-1.78,17.75v-13h3.57v13Z"/><path class="cls-1" d="M204.2,21.92V14.19c0-1.07-.07-2.34-1.57-2.34A3.75,3.75,0,0,0,200.17,13v8.9H196.6v-13H199l.49,1.83a5.43,5.43,0,0,1,4.13-2.21c2.82,0,4.23,1.84,4.23,5.15v8.26Z"/><path class="cls-1" d="M211.4,23.33a12.78,12.78,0,0,0,3.48.63c1.48,0,3-.35,3-2.72v-1a4,4,0,0,1-3.21,1.48c-3,0-5-2.56-5-6.43s1.84-6.74,5.24-6.74a4.19,4.19,0,0,1,3.68,2.05l.45-1.67h2.35V21.26c0,4.6-3.36,5.66-5.78,5.66a14,14,0,0,1-5-1Zm6.48-10.26a2.73,2.73,0,0,0-2.25-1.32c-1.29,0-2.3.71-2.3,3.5s1.13,3.48,2.25,3.48a2.89,2.89,0,0,0,2.3-1.27Z"/><path class="cls-1" d="M17.26,16.64H10.58a.62.62,0,0,0-.62.62.61.61,0,0,0,.62.62h6.68a.61.61,0,0,0,.62-.62A.62.62,0,0,0,17.26,16.64Z"/><path class="cls-1" d="M14.92,19.53H10.58a.63.63,0,0,0,0,1.25h4.34a.63.63,0,0,0,0-1.25Z"/><path class="cls-1" d="M14.78,0A14.78,14.78,0,1,0,29.56,14.78,14.78,14.78,0,0,0,14.78,0Zm5.51,22.22a1.53,1.53,0,0,1-1.51,1.52H9.06a1.53,1.53,0,0,1-1.52-1.52V9.13A1.53,1.53,0,0,1,9.06,7.61h6.2v.62a4.38,4.38,0,0,0,4.34,4.41c.28,0,.49-.07.69-.07ZM19.6,11.61A3.38,3.38,0,1,1,23,8.23,3.38,3.38,0,0,1,19.6,11.61Z"/><path class="cls-1" d="M17.26,13.75H10.58a.61.61,0,0,0-.62.62.62.62,0,0,0,.62.62h6.68a.62.62,0,0,0,.62-.62A.61.61,0,0,0,17.26,13.75Z"/><path class="cls-1" d="M21.05,7.75h-1v-1a.48.48,0,0,0-.49-.49.47.47,0,0,0-.41.49v1h-1a.49.49,0,0,0,0,1h1v1a.46.46,0,0,0,.41.48.47.47,0,0,0,.49-.48v-1h1a.49.49,0,0,0,0-1Z"/></svg>