<svg id="Layer_1" data-name="Layer 1" xmlns="http://www.w3.org/2000/svg" viewBox="0 0 135.59 129.74"><defs><style>.cls-1{fill:#e0e1e5;}.cls-2,.cls-3{fill:none;stroke:#e0e1e5;stroke-width:5px;}.cls-2{stroke-miterlimit:10;}.cls-3{stroke-linecap:round;stroke-linejoin:round;}</style></defs><title>fmuArtboard 1</title><path class="cls-1" d="M132.24,93.73H106.3V15.07A15.09,15.09,0,0,0,91.23,0H15.07A15.09,15.09,0,0,0,0,15.07V103a26.82,26.82,0,0,0,26.79,26.79h82A26.82,26.82,0,0,0,135.59,103V97.09A3.36,3.36,0,0,0,132.24,93.73ZM26.79,123A20.09,20.09,0,0,1,6.72,103V15.07a8.36,8.36,0,0,1,8.35-8.35H91.23a8.37,8.37,0,0,1,8.36,8.35V93.73H50.22a3.36,3.36,0,0,0-3.35,3.36V103A20.1,20.1,0,0,1,26.79,123ZM128.88,103A20.1,20.1,0,0,1,108.8,123H45.2l3-4A26.63,26.63,0,0,0,53.58,103v-2.51h75.31Z"/><path class="cls-1" d="M75.78,39.3V73.79H30.56V39.3H75.78m1-5H29.56a4,4,0,0,0-4,4V74.79a4,4,0,0,0,4,4H76.78a4,4,0,0,0,4-4V38.3a4,4,0,0,0-4-4Z"/><line class="cls-2" x1="30.52" y1="49.67" x2="78.21" y2="49.67"/><line class="cls-3" x1="39.62" y1="40.37" x2="39.62" y2="32.24"/><line class="cls-3" x1="66.72" y1="40.37" x2="66.72" y2="32.24"/><line class="cls-3" x1="48.73" y1="58.52" x2="57.62" y2="67.41"/><line class="cls-3" x1="48.73" y1="67.41" x2="57.62" y2="58.52"/></svg>